name rise43.5482peak65.4966fall89.1036.mot
datacolumns 19
datarows 26
range 6.91830200000000 6.95997200000000
endheader
time	ground_force1_vx	ground_force1_vy	ground_force1_vz	ground_force1_px	ground_force1_py	ground_force1_pz	ground_force2_vx	ground_force2_vy	ground_force2_vz	ground_force2_px	ground_force2_py	ground_force2_pz	ground_torque1_x	ground_torque1_y	ground_torque1_z	ground_torque2_x	ground_torque2_y	ground_torque2_z	
6.91830200000000	-38.10872300000000	823.73692500000004	56.25816900000000	0.07375000000000	0.00000000000000	0.09887400000000	-6.69667800000000	31.61615700000000	3.92305000000000	0.30192800000000	0.00000000000000	-0.08083300000000	0.00000000000000	15.84678600000000	0.00000000000000	0.00000000000000	1.26710100000000	0.00000000000000	
6.91997200000000	-38.62235900000000	822.20753600000000	56.24862700000000	0.07292900000000	0.00000000000000	0.09879400000000	-7.71526500000000	37.55076100000000	4.52298600000000	0.30459200000000	0.00000000000000	-0.08129500000000	0.00000000000000	15.76144700000000	0.00000000000000	0.00000000000000	1.47071900000000	0.00000000000000	
6.92163700000000	-39.15365500000000	820.53103399999998	56.21628100000000	0.07210500000000	0.00000000000000	0.09871100000000	-8.67011500000000	43.54531200000000	5.08733400000000	0.30700800000000	0.00000000000000	-0.08173200000000	0.00000000000000	15.67753600000000	0.00000000000000	0.00000000000000	1.66451300000000	0.00000000000000	
6.92329900000000	-39.70286400000000	818.70603400000005	56.16055800000000	0.07127800000000	0.00000000000000	0.09862600000000	-9.53400500000000	49.49398900000000	5.60051500000000	0.30920800000000	0.00000000000000	-0.08214600000000	0.00000000000000	15.59525000000000	0.00000000000000	0.00000000000000	1.84309500000000	0.00000000000000	
6.92497200000000	-40.27016000000000	816.73123899999996	56.08092500000000	0.07044700000000	0.00000000000000	0.09853800000000	-10.28578300000000	55.31105300000000	6.05050400000000	0.31122000000000	0.00000000000000	-0.08254000000000	0.00000000000000	15.51477100000000	0.00000000000000	0.00000000000000	2.00223200000000	0.00000000000000	
6.92663300000000	-40.85564300000000	814.60543299999995	55.97689400000000	0.06961300000000	0.00000000000000	0.09844600000000	-10.91115200000000	60.93496400000000	6.42928000000000	0.31306500000000	0.00000000000000	-0.08291600000000	0.00000000000000	15.43627400000000	0.00000000000000	0.00000000000000	2.13901600000000	0.00000000000000	
6.92830000000000	-41.45933000000000	812.32748000000004	55.84802300000000	0.06877500000000	0.00000000000000	0.09835200000000	-11.40277600000000	66.32987199999999	6.73286900000000	0.31476200000000	0.00000000000000	-0.08327700000000	0.00000000000000	15.35991800000000	0.00000000000000	0.00000000000000	2.25190700000000	0.00000000000000	
6.92997200000000	-42.08115600000000	809.89632200000005	55.69391800000000	0.06793300000000	0.00000000000000	0.09825500000000	-11.75980700000000	71.48475999999999	6.96106100000000	0.31632800000000	0.00000000000000	-0.08362400000000	0.00000000000000	15.28585300000000	0.00000000000000	0.00000000000000	2.34064900000000	0.00000000000000	
6.93163400000000	-42.72097200000000	807.31097499999998	55.51423700000000	0.06708800000000	0.00000000000000	0.09815500000000	-11.98696200000000	76.41068700000000	7.11685900000000	0.31777500000000	0.00000000000000	-0.08395800000000	0.00000000000000	15.21421400000000	0.00000000000000	0.00000000000000	2.40609600000000	0.00000000000000	
6.93330600000000	-43.37854100000000	804.57052999999996	55.30868500000000	0.06623900000000	0.00000000000000	0.09805100000000	-12.09330100000000	81.13668699999999	7.20575700000000	0.31911600000000	0.00000000000000	-0.08428200000000	0.00000000000000	15.14512200000000	0.00000000000000	0.00000000000000	2.44998000000000	0.00000000000000	
6.93497100000000	-44.05354000000000	801.67414499999995	55.07702500000000	0.06538600000000	0.00000000000000	0.09794500000000	-12.09087000000000	85.70491400000000	7.23494200000000	0.32035900000000	0.00000000000000	-0.08459500000000	0.00000000000000	15.07868300000000	0.00000000000000	0.00000000000000	2.47463700000000	0.00000000000000	
6.93663900000000	-44.74555400000000	798.62104999999997	54.81906800000000	0.06453000000000	0.00000000000000	0.09783500000000	-11.99333100000000	90.16554100000000	7.21249100000000	0.32151400000000	0.00000000000000	-0.08489800000000	0.00000000000000	15.01498900000000	0.00000000000000	0.00000000000000	2.48273900000000	0.00000000000000	
6.93830600000000	-45.45408000000000	795.41054199999996	54.53468500000000	0.06366900000000	0.00000000000000	0.09772300000000	-11.81471200000000	94.57189500000000	7.14663800000000	0.32258800000000	0.00000000000000	-0.08519400000000	0.00000000000000	14.95411600000000	0.00000000000000	0.00000000000000	2.47703900000000	0.00000000000000	
6.93997300000000	-46.17852200000000	792.04198099999996	54.22380000000000	0.06280500000000	0.00000000000000	0.09760700000000	-11.56832800000000	98.97615800000000	7.04514700000000	0.32358800000000	0.00000000000000	-0.08548200000000	0.00000000000000	14.89612200000000	0.00000000000000	0.00000000000000	2.46015600000000	0.00000000000000	
6.94163200000000	-46.91819000000000	788.51479600000005	53.88639200000000	0.06193700000000	0.00000000000000	0.09748900000000	-11.26596200000000	103.42588000000001	6.91483700000000	0.32451800000000	0.00000000000000	-0.08576200000000	0.00000000000000	14.84105000000000	0.00000000000000	0.00000000000000	2.43440500000000	0.00000000000000	
6.94330700000000	-47.67230500000000	784.82847500000003	53.52250100000000	0.06106400000000	0.00000000000000	0.09736700000000	-10.91729400000000	107.96144000000000	6.76125100000000	0.32538400000000	0.00000000000000	-0.08603700000000	0.00000000000000	14.78892600000000	0.00000000000000	0.00000000000000	2.40168200000000	0.00000000000000	
6.94496800000000	-48.43999200000000	780.98257300000000	53.13222000000000	0.06018800000000	0.00000000000000	0.09724200000000	-10.52960100000000	112.61446100000001	6.58848600000000	0.32618900000000	0.00000000000000	-0.08630500000000	0.00000000000000	14.73975600000000	0.00000000000000	0.00000000000000	2.36339700000000	0.00000000000000	
6.94663200000000	-49.22028500000000	776.97670600000004	52.71570100000000	0.05930800000000	0.00000000000000	0.09711500000000	-10.10768200000000	117.40714800000001	6.39915800000000	0.32693800000000	0.00000000000000	-0.08656800000000	0.00000000000000	14.69353300000000	0.00000000000000	0.00000000000000	2.32046200000000	0.00000000000000	
6.94830700000000	-50.01212700000000	772.81055200000003	52.27315400000000	0.05842300000000	0.00000000000000	0.09698400000000	-9.65399900000000	122.35242500000000	6.19448600000000	0.32763300000000	0.00000000000000	-0.08682500000000	0.00000000000000	14.65022600000000	0.00000000000000	0.00000000000000	2.27331200000000	0.00000000000000	
6.94997100000000	-50.81436700000000	768.48385199999996	51.80484400000000	0.05753500000000	0.00000000000000	0.09685100000000	-9.16895200000000	127.45470899999999	5.97446000000000	0.32827700000000	0.00000000000000	-0.08707800000000	0.00000000000000	14.60979100000000	0.00000000000000	0.00000000000000	2.22196200000000	0.00000000000000	
6.95163500000000	-51.62576600000000	763.99640999999997	51.31109500000000	0.05664300000000	0.00000000000000	0.09671400000000	-8.65127400000000	132.71115200000000	5.73807600000000	0.32887300000000	0.00000000000000	-0.08732600000000	0.00000000000000	14.57216200000000	0.00000000000000	0.00000000000000	2.16608600000000	0.00000000000000	
6.95331200000000	-52.44499500000000	759.34809399999995	50.79228600000000	0.05574600000000	0.00000000000000	0.09657500000000	-8.09847400000000	138.11316900000000	5.48360100000000	0.32942200000000	0.00000000000000	-0.08757000000000	0.00000000000000	14.53725600000000	0.00000000000000	0.00000000000000	2.10510500000000	0.00000000000000	
6.95497000000000	-53.27064000000000	754.53883599999995	50.24884900000000	0.05484600000000	0.00000000000000	0.09643300000000	-7.50729100000000	143.64808800000000	5.20883800000000	0.32992600000000	0.00000000000000	-0.08780900000000	0.00000000000000	14.50497300000000	0.00000000000000	0.00000000000000	2.03827800000000	0.00000000000000	
6.95663300000000	-54.10119900000000	749.56863499999997	49.68127400000000	0.05394100000000	0.00000000000000	0.09628900000000	-6.87413300000000	149.30077299999999	4.91138900000000	0.33038700000000	0.00000000000000	-0.08804500000000	0.00000000000000	14.47519300000000	0.00000000000000	0.00000000000000	1.96479000000000	0.00000000000000	
6.95831700000000	-54.93509100000000	744.43755899999996	49.09010000000000	0.05303300000000	0.00000000000000	0.09614200000000	-6.19545500000000	155.05511000000001	4.58887500000000	0.33080600000000	0.00000000000000	-0.08827700000000	0.00000000000000	14.44777900000000	0.00000000000000	0.00000000000000	1.88383400000000	0.00000000000000	
6.95997200000000	-55.77065500000000	739.14574600000003	48.47592100000000	0.05212000000000	0.00000000000000	0.09599300000000	-5.46807500000000	160.89526400000000	4.23912400000000	0.33118400000000	0.00000000000000	-0.08850500000000	0.00000000000000	14.42257500000000	0.00000000000000	0.00000000000000	1.79466800000000	0.00000000000000	
